<?xml version="1.0" encoding="utf-8"?>
<!-- Generator: Adobe Illustrator 16.0.4, SVG Export Plug-In . SVG Version: 6.00 Build 0)  -->
<!DOCTYPE svg PUBLIC "-//W3C//DTD SVG 1.1//EN" "http://www.w3.org/Graphics/SVG/1.1/DTD/svg11.dtd">
<svg version="1.1" id="Calque_1" xmlns="http://www.w3.org/2000/svg" xmlns:xlink="http://www.w3.org/1999/xlink" x="0px" y="0px"
	 width="506.975px" height="478.477px" viewBox="0 0 506.975 478.477" enable-background="new 0 0 506.975 478.477"
	 xml:space="preserve">
<path d="M470.322,443.68l-10.332-10.527c0,0,0.877-71.053,0-76.316s5.264-3.508,8.772-7.895c3.509-4.385,0-14.035,0-14.035
	l-52.632-28.07c0,0,0-101.753,0-114.034c0-3.798-0.504-6.588-1.2-8.632h10.212l0.427-0.018c-0.005,0.001,0.986,0.024,1.483,0.481
	c0.408,0.375,0.642,1.292,0.642,2.52v24.581c-0.104,1.37-0.082,5.048,2.63,8.133c1.518,1.727,4.396,3.785,9.489,3.785h12.649
	c0.886,1.399,2.438,2.335,4.217,2.335h25.381c2.762,0,5-2.239,5-5v-4.67c0-2.761-2.238-5-5-5H456.68
	c-1.779,0-3.331,0.936-4.217,2.335h-12.649c-1.318,0-1.883-0.285-1.977-0.384c-0.089-0.095-0.168-0.439-0.171-0.714l0.028-25.4
	c0-5.228-2.109-8.262-3.879-9.886c-3.348-3.073-7.578-3.15-8.8-3.096h-14.148c0-5.754,0-15.502,0-20.842
	c0-7.895-6.14-8.772-6.14-8.772h-1.348V87.98c0-2.761-2.239-5-5-5h-29.119c-2.762,0-5,2.239-5,5v56.576h-1.639v-42.982h-8.772
	V76.552h-21.053c0,0,0-33.75,0-39.891s-8.771-5.263-8.771-5.263s-149.123,0-157.895,0s-8.772,10.526-8.772,10.526v37.719h-21.93
	v24.562h-7.018l7.018,11.404h5.263v6.14H96.833c-5.962,4.383-5.708,12.182-5.708,12.182v19.2c0,0-7.905,21.835-10.917,35.764
	s-1.506,42.917-1.506,42.917s-4.518,1.129-7.529,1.129s-3.287,4.598-3.287,4.598v85.965h-9.649l-25.705,14.035
	c0,14.912,11.669,15.789,11.669,15.789v83.334c0,0-6.14,5.262-10.526,7.895c-4.386,2.631,5.263,11.402,5.263,11.402h421.931
	C460.868,455.959,473.19,446.603,470.322,443.68z"/>
<path fill="#FFFFFF" d="M325.706,71.013c0,2.761-2.238,5-5,5h-152c-2.761,0-5-2.239-5-5V42.346c0-2.761,2.239-5,5-5h152
	c2.762,0,5,2.239,5,5V71.013z"/>
<g>
	<g>
		<circle fill="#FFFFFF" cx="158.868" cy="260.014" r="12"/>
		<circle fill="#FFFFFF" cx="198.201" cy="260.014" r="12"/>
		<circle fill="#FFFFFF" cx="233.201" cy="260.014" r="12"/>
		<circle fill="#FFFFFF" cx="301.534" cy="260.014" r="12"/>
		<circle fill="#FFFFFF" cx="338.201" cy="260.014" r="12"/>
	</g>
	<g>
		<circle fill="#FFFFFF" cx="158.868" cy="227.346" r="12"/>
		<circle fill="#FFFFFF" cx="198.201" cy="227.346" r="12"/>
		<circle fill="#FFFFFF" cx="233.201" cy="227.346" r="12"/>
		<circle fill="#FFFFFF" cx="301.534" cy="227.346" r="12"/>
		<circle fill="#FFFFFF" cx="338.201" cy="227.346" r="12"/>
	</g>
	<g>
		<ellipse fill="#FFFFFF" cx="158.868" cy="197.346" rx="12" ry="11.276"/>
		<ellipse fill="#FFFFFF" cx="198.201" cy="197.346" rx="12" ry="11.276"/>
		<ellipse fill="#FFFFFF" cx="233.201" cy="197.346" rx="12" ry="11.276"/>
		<ellipse fill="#FFFFFF" cx="301.534" cy="197.346" rx="12" ry="11.276"/>
		<ellipse fill="#FFFFFF" cx="338.201" cy="197.346" rx="12" ry="11.276"/>
	</g>
	<g>
		<ellipse fill="#FFFFFF" cx="159.572" cy="168.68" rx="11.906" ry="8.667"/>
		<ellipse fill="#FFFFFF" cx="198.596" cy="168.68" rx="11.906" ry="8.667"/>
		<ellipse fill="#FFFFFF" cx="233.322" cy="168.68" rx="11.906" ry="8.667"/>
		<ellipse fill="#FFFFFF" cx="301.118" cy="168.68" rx="11.906" ry="8.667"/>
		<ellipse fill="#FFFFFF" cx="337.497" cy="168.68" rx="11.906" ry="8.667"/>
	</g>
	<g>
		<ellipse fill="#FFFFFF" cx="161.37" cy="150.346" rx="11.665" ry="4.667"/>
		<ellipse fill="#FFFFFF" cx="199.605" cy="150.346" rx="11.665" ry="4.667"/>
		<ellipse fill="#FFFFFF" cx="233.629" cy="150.346" rx="11.665" ry="4.667"/>
		<ellipse fill="#FFFFFF" cx="300.055" cy="150.346" rx="11.666" ry="4.667"/>
		<ellipse fill="#FFFFFF" cx="335.699" cy="150.346" rx="11.665" ry="4.667"/>
	</g>
</g>
<path fill="#FFFFFF" d="M450.2,430.346c0,2.762-2.238,5-5,5H58.534c-2.761,0-5-2.238-5-5v-69.332c0-2.762,2.239-5,5-5H445.2
	c2.762,0,5,2.238,5,5V430.346z"/>
<g>
	<path d="M136.366,407.827c-0.851,6.276-3,11.11-6.447,14.509c-3.259,3.28-7.298,4.921-12.117,4.921
		c-5.384,0-9.919-2.244-13.603-6.734c-2.268-2.764-3.732-6.305-4.393-10.622c-0.379-2.532-0.567-7.168-0.567-13.902
		c0-6.737,0.188-11.37,0.567-13.904c0.661-4.317,2.125-7.858,4.393-10.622c3.684-4.488,8.219-6.734,13.603-6.734
		c4.865,0,8.963,1.671,12.293,5.008c3.331,3.339,5.42,8.148,6.271,14.422h-9.991c-1.181-5.812-4.015-8.722-8.501-8.722
		c-2.977,0-5.268,1.353-6.873,4.058c-1.276,2.19-1.914,7.688-1.914,16.495c0,4.778,0.047,7.771,0.142,8.979
		c0.33,3.859,1.109,6.651,2.338,8.378c1.559,2.13,3.661,3.194,6.307,3.194c4.487,0,7.321-2.906,8.501-8.722H136.366z"/>
	<path d="M183.837,426.739h-10.274l-2.975-10.881h-17.926l-3.046,10.881h-10.274l18.351-61.482h7.723L183.837,426.739z
		 M167.966,405.756l-6.164-22.366l-6.377,22.366H167.966z"/>
	<path d="M222.733,408.604c0,5.814-1.76,10.378-5.278,13.687c-3.52,3.312-7.995,4.966-13.427,4.966
		c-7.888,0-14.028-2.705-18.421-8.118l6.376-7.771c2.835,3.453,6.897,5.181,12.188,5.181c5.951,0,8.927-2.532,8.927-7.599
		c0-2.303-0.496-4.016-1.488-5.139c-0.992-1.121-2.504-1.855-4.535-2.202l-6.093-1.036c-8.928-1.495-13.391-7.224-13.391-17.184
		c0-5.583,1.581-10.088,4.746-13.514c3.164-3.426,7.44-5.139,12.825-5.139c6.802,0,12.233,2.39,16.296,7.168l-6.235,7.512
		c-2.409-2.82-5.857-4.231-10.344-4.231c-2.505,0-4.429,0.735-5.775,2.202c-1.347,1.47-2.02,3.325-2.02,5.569
		c0,1.785,0.532,3.283,1.595,4.49c1.063,1.21,2.586,1.987,4.569,2.333l5.953,1.037c4.298,0.749,7.51,2.331,9.635,4.748
		C221.435,398.561,222.733,402.906,222.733,408.604z"/>
	<path d="M268.716,426.739h-9.848v-25.733h-17.077v25.733h-9.848v-61.482h9.848v25.128h17.077v-25.128h9.848V426.739z"/>
	<path d="M317.038,409.037c0,5.583-1.417,9.932-4.252,13.039c-2.834,3.109-6.564,4.663-11.194,4.663h-21.113v-61.482h20.264
		c4.863,0,8.68,1.554,11.442,4.661c2.763,3.11,4.145,7.312,4.145,12.608c0,3.107-0.708,5.901-2.126,8.375
		c-1.181,1.959-2.549,3.397-4.109,4.32C314.723,397.868,317.038,402.473,317.038,409.037z M306.481,383.044
		c0-2.13-0.567-3.843-1.7-5.137c-1.134-1.297-2.741-1.944-4.818-1.944h-9.637v14.162h9.637c2.077,0,3.685-0.646,4.818-1.942
		C305.914,386.886,306.481,385.176,306.481,383.044z M307.189,408.434c0-2.188-0.566-3.987-1.7-5.398
		c-1.134-1.409-2.764-2.116-4.889-2.116h-10.274v15.112h10.274c2.125,0,3.755-0.718,4.889-2.16
		C306.623,412.435,307.189,410.621,307.189,408.434z"/>
	<path d="M362.666,395.998c0,6.679-0.213,11.312-0.638,13.902c-0.614,4.262-2.079,7.802-4.394,10.622
		c-3.685,4.49-8.218,6.734-13.603,6.734c-5.433,0-9.99-2.244-13.674-6.734c-2.268-2.764-3.732-6.305-4.394-10.622
		c-0.38-2.532-0.567-7.168-0.567-13.902c0-6.737,0.188-11.37,0.567-13.904c0.661-4.317,2.126-7.858,4.394-10.622
		c3.684-4.488,8.241-6.734,13.674-6.734c5.385,0,9.918,2.246,13.603,6.734c2.314,2.822,3.779,6.363,4.394,10.622
		C362.453,384.684,362.666,389.319,362.666,395.998z M352.817,395.998c0-4.72-0.048-7.715-0.141-8.98
		c-0.283-3.801-1.064-6.564-2.34-8.291c-1.605-2.186-3.709-3.281-6.305-3.281c-2.646,0-4.771,1.096-6.377,3.281
		c-1.229,1.727-1.984,4.49-2.268,8.291c-0.095,1.036-0.142,4.029-0.142,8.98c0,4.952,0.047,7.944,0.142,8.979
		c0.283,3.801,1.038,6.564,2.268,8.291c1.605,2.188,3.731,3.281,6.377,3.281c2.928,0,5.218-1.381,6.873-4.145
		C352.181,410.275,352.817,404.807,352.817,395.998z"/>
	<path d="M409.217,426.739H397.95l-9.776-21.416l-9.708,21.416h-11.265l15.658-31.518l-14.666-29.965h11.193l8.787,19.86
		l8.856-19.86h11.124l-14.667,29.965L409.217,426.739z"/>
</g>
<circle cx="433.88" cy="395.68" r="4.52"/>
<circle cx="71.7" cy="395.68" r="4.52"/>
<g>
	<path d="M176.314,62.719c-0.033,0.896,0.173,1.711,0.621,2.447c0.322,0.531,0.715,0.944,1.178,1.241
		c0.447,0.322,0.957,0.552,1.532,0.691c0.574,0.14,1.134,0.17,1.679,0.091c0.551-0.068,1.086-0.261,1.605-0.577
		c0.217-0.132,0.327-0.206,0.331-0.224l0.583,0.958c-0.005,0.017-0.115,0.092-0.33,0.224c-0.617,0.375-1.294,0.616-2.029,0.723
		c-0.719,0.111-1.421,0.078-2.106-0.098c-0.689-0.158-1.328-0.452-1.915-0.881c-0.604-0.433-1.094-0.958-1.469-1.575
		c-0.389-0.639-0.636-1.326-0.742-2.061c-0.104-0.708-0.063-1.407,0.124-2.1c0.169-0.696,0.457-1.331,0.864-1.905
		c0.407-0.574,0.936-1.059,1.584-1.454c0.217-0.132,0.334-0.195,0.352-0.191l0.582,0.958c-0.018-0.004-0.134,0.06-0.351,0.192
		c-0.639,0.388-1.134,0.89-1.486,1.504C176.536,61.317,176.333,61.996,176.314,62.719z"/>
	<path d="M182.551,55.909l7.06,8.621l-1.065,0.504l-0.96-1.186l-2.559,1.209l0.307,1.494l-1.065,0.503l-2.197-10.919L182.551,55.909
		z M186.824,62.948l-2.945-3.609l0.919,4.567L186.824,62.948z"/>
	<path d="M189.458,62.441c0.806,0.327,1.485,0.384,2.041,0.17c0.166-0.064,0.335-0.17,0.509-0.318
		c0.08-0.072,0.152-0.15,0.215-0.235c0.062-0.085,0.123-0.173,0.183-0.265c0.104-0.188,0.16-0.395,0.17-0.615
		c0.022-0.226-0.009-0.445-0.091-0.657c-0.118-0.307-0.616-0.788-1.492-1.44l-1.142-0.741c-1.317-0.848-2.103-1.599-2.354-2.248
		c-0.228-0.591-0.226-1.149,0.007-1.672c0.225-0.508,0.627-0.874,1.206-1.097c0.603-0.232,1.224-0.153,1.863,0.238l-0.456,0.93
		c-0.445-0.167-0.814-0.195-1.11-0.081c-0.579,0.224-0.767,0.601-0.561,1.133c0.169,0.438,0.912,1.08,2.23,1.929
		c1.667,1.258,2.621,2.2,2.862,2.826c0.123,0.319,0.182,0.663,0.175,1.032c-0.005,0.341-0.084,0.664-0.238,0.968
		c-0.146,0.328-0.343,0.607-0.593,0.839c-0.269,0.253-0.58,0.448-0.936,0.585c-0.567,0.219-1.219,0.253-1.956,0.103L189.458,62.441z
		"/>
	<path d="M195.864,50.853l1.105-0.348l3.243,10.312l-1.105,0.348l-2.018-6.417l-2.175,0.685l2.018,6.416l-1.105,0.348l-3.244-10.314
		l1.106-0.348l0.883,2.81l2.175-0.685L195.864,50.853z"/>
	<path d="M205.016,48.437c0.461-0.074,0.927-0.058,1.399,0.047c0.23,0.054,0.446,0.13,0.647,0.229
		c0.202,0.1,0.399,0.212,0.595,0.338c0.369,0.27,0.692,0.595,0.97,0.976c0.27,0.408,0.452,0.829,0.546,1.262
		c0.069,0.322,0.094,0.673,0.072,1.054c-0.033,0.383-0.113,0.73-0.24,1.043c-0.07,0.158-0.146,0.314-0.229,0.468
		c-0.084,0.154-0.181,0.301-0.293,0.442c-0.212,0.28-0.464,0.522-0.756,0.728c0.035,0.044,0.076,0.084,0.123,0.119
		c0.047,0.036,0.095,0.08,0.146,0.134s0.104,0.11,0.163,0.169c0.058,0.059,0.12,0.126,0.188,0.202l0.636,0.776
		c0.405,0.496,0.924,0.766,1.556,0.81l0.245,1.133c-0.223-0.016-0.418-0.039-0.585-0.067c-0.168-0.028-0.319-0.06-0.456-0.096
		c-0.268-0.046-0.488-0.114-0.663-0.207c-0.169-0.067-0.321-0.176-0.457-0.328c-0.068-0.076-0.138-0.156-0.207-0.237
		c-0.069-0.083-0.142-0.18-0.218-0.292l-0.281-0.406c-0.035-0.044-0.075-0.094-0.119-0.149s-0.101-0.121-0.169-0.197
		c-0.133-0.139-0.303-0.297-0.509-0.473l-0.292-0.189l-0.157-0.102c-0.028-0.006-0.049-0.015-0.064-0.025
		c-0.015-0.01-0.036-0.018-0.063-0.025l0.037-0.008l0.744,3.435l-1.15,0.25l-2.289-10.566L205.016,48.437z M206.329,54.49
		c0.289-0.089,0.555-0.224,0.799-0.406c0.243-0.183,0.451-0.409,0.624-0.68c0.173-0.271,0.289-0.562,0.351-0.873
		c0.066-0.287,0.059-0.622-0.025-1.006c-0.069-0.322-0.191-0.619-0.366-0.893c-0.199-0.268-0.421-0.486-0.662-0.653
		c-0.257-0.178-0.538-0.312-0.839-0.402c-0.148-0.032-0.305-0.053-0.468-0.064c-0.163-0.009-0.325-0.003-0.487,0.019L206.329,54.49z
		"/>
	<path d="M210.671,47.3l4.722-0.794l0.192,1.143l-3.578,0.601l0.296,1.761l2.735-0.459l0.189,1.125l-2.736,0.459l0.926,5.509
		l3.579-0.602l0.189,1.124l-4.722,0.794L210.671,47.3z"/>
	<path d="M218.688,49.054c-0.396,0.802-0.54,1.631-0.434,2.485c0.062,0.503,0.218,0.975,0.464,1.416
		c0.223,0.458,0.522,0.861,0.898,1.209c0.377,0.361,0.795,0.647,1.256,0.857c0.464,0.236,0.956,0.346,1.478,0.332l-0.575-4.6
		l1.113-0.139l0.756,5.745c-0.012,0.014-0.147,0.038-0.41,0.07c-0.69,0.087-1.391,0.028-2.104-0.177
		c-0.698-0.193-1.316-0.506-1.854-0.936c-0.562-0.428-1.029-0.957-1.401-1.587c-0.382-0.616-0.621-1.301-0.715-2.055
		c-0.093-0.742-0.037-1.47,0.165-2.185c0.194-0.688,0.518-1.309,0.971-1.863c0.438-0.565,0.959-1.027,1.563-1.383
		c0.604-0.356,1.282-0.581,2.033-0.675c0.251-0.031,0.384-0.041,0.397-0.03l0.14,1.112c-0.015-0.011-0.146,0-0.397,0.031
		c-0.738,0.092-1.393,0.347-1.964,0.763C219.46,47.865,219,48.401,218.688,49.054z"/>
	<path d="M225.786,45.29l1,10.764l-1.153,0.108l-1.001-10.765L225.786,45.29z"/>
	<path d="M228.195,53.9c0.672,0.551,1.306,0.806,1.899,0.766c0.177-0.012,0.37-0.063,0.58-0.154c0.099-0.045,0.19-0.099,0.274-0.162
		c0.085-0.063,0.169-0.129,0.254-0.198c0.153-0.15,0.269-0.33,0.344-0.538c0.087-0.208,0.123-0.427,0.107-0.654
		c-0.022-0.329-0.356-0.934-1.001-1.817l-0.871-1.045c-1.009-1.2-1.537-2.148-1.585-2.844c-0.043-0.631,0.124-1.164,0.501-1.596
		c0.365-0.418,0.857-0.649,1.477-0.691c0.645-0.044,1.214,0.215,1.71,0.778l-0.711,0.752c-0.375-0.292-0.721-0.427-1.036-0.405
		c-0.62,0.042-0.909,0.348-0.871,0.917c0.032,0.467,0.553,1.302,1.562,2.502c1.221,1.694,1.854,2.876,1.899,3.546
		c0.022,0.341-0.022,0.687-0.139,1.038c-0.104,0.325-0.275,0.609-0.513,0.854c-0.236,0.27-0.508,0.479-0.814,0.626
		c-0.332,0.163-0.687,0.257-1.066,0.283c-0.606,0.042-1.239-0.118-1.899-0.479L228.195,53.9z"/>
	<path d="M235.555,55.479l-0.386-9.644l-1.823,0.073L233.3,44.75l4.784-0.192l0.046,1.158l-1.804,0.072l0.387,9.645L235.555,55.479z
		"/>
	<path d="M239.942,44.515l4.787-0.055l0.014,1.159l-3.629,0.042l0.021,1.786l2.773-0.032l0.014,1.14l-2.773,0.032l0.064,5.585
		l3.628-0.042l0.014,1.14l-4.787,0.055L239.942,44.515z"/>
	<path d="M247.8,44.471c0.465,0.032,0.915,0.151,1.354,0.36c0.212,0.104,0.404,0.227,0.579,0.369
		c0.174,0.142,0.342,0.295,0.503,0.462c0.3,0.346,0.542,0.735,0.727,1.168c0.172,0.458,0.254,0.909,0.248,1.353
		c-0.004,0.329-0.059,0.677-0.165,1.042c-0.118,0.366-0.274,0.688-0.468,0.963c-0.104,0.138-0.213,0.273-0.329,0.404
		c-0.115,0.131-0.244,0.253-0.385,0.366c-0.269,0.224-0.568,0.404-0.899,0.54c0.024,0.051,0.056,0.098,0.093,0.143
		s0.075,0.099,0.112,0.163c0.037,0.064,0.077,0.131,0.121,0.201c0.043,0.07,0.09,0.15,0.139,0.24l0.444,0.898
		c0.284,0.574,0.729,0.954,1.335,1.139l-0.015,1.159c-0.214-0.066-0.398-0.132-0.555-0.197c-0.157-0.065-0.298-0.13-0.423-0.195
		c-0.251-0.104-0.451-0.221-0.601-0.35c-0.15-0.103-0.273-0.244-0.372-0.422c-0.05-0.089-0.099-0.182-0.148-0.277
		c-0.049-0.096-0.098-0.207-0.146-0.334l-0.183-0.458c-0.025-0.051-0.053-0.107-0.083-0.172c-0.031-0.063-0.071-0.141-0.12-0.229
		c-0.099-0.166-0.229-0.358-0.39-0.575l-0.242-0.25l-0.13-0.135c-0.026-0.013-0.045-0.026-0.057-0.039
		c-0.013-0.013-0.032-0.026-0.057-0.039l0.038,0l-0.046,3.515l-1.178-0.015l0.139-10.81L247.8,44.471z M247.721,50.665
		c0.302-0.021,0.591-0.093,0.869-0.217c0.278-0.123,0.531-0.297,0.761-0.521c0.229-0.225,0.408-0.482,0.537-0.772
		c0.13-0.265,0.196-0.593,0.202-0.986c0.004-0.329-0.049-0.646-0.158-0.952c-0.134-0.305-0.301-0.567-0.498-0.785
		c-0.211-0.231-0.454-0.424-0.728-0.58c-0.138-0.065-0.285-0.121-0.442-0.167c-0.156-0.046-0.315-0.077-0.479-0.092L247.721,50.665z
		"/>
	<path d="M256.394,53.495c0.604,0.626,1.203,0.954,1.797,0.983c0.176,0.009,0.375-0.019,0.594-0.084
		c0.102-0.033,0.199-0.076,0.291-0.128s0.184-0.108,0.275-0.167c0.172-0.131,0.307-0.296,0.406-0.494
		c0.111-0.197,0.172-0.41,0.182-0.638c0.018-0.329-0.242-0.97-0.779-1.922l-0.74-1.14c-0.861-1.311-1.273-2.314-1.24-3.01
		c0.031-0.632,0.26-1.141,0.686-1.526c0.41-0.372,0.926-0.543,1.547-0.512c0.646,0.032,1.182,0.356,1.607,0.974l-0.795,0.665
		c-0.338-0.333-0.666-0.509-0.982-0.524c-0.619-0.031-0.943,0.238-0.973,0.807c-0.023,0.469,0.396,1.358,1.258,2.669
		c1.012,1.826,1.502,3.074,1.469,3.744c-0.018,0.342-0.105,0.68-0.26,1.015c-0.143,0.31-0.348,0.572-0.611,0.788
		c-0.266,0.241-0.561,0.416-0.883,0.527c-0.348,0.122-0.711,0.174-1.09,0.155c-0.607-0.03-1.219-0.263-1.83-0.7L256.394,53.495z"/>
	<path d="M273.112,51.325c-0.066,0.745-0.266,1.427-0.6,2.046c-0.334,0.619-0.775,1.159-1.324,1.62
		c-0.535,0.475-1.146,0.822-1.826,1.042c-0.695,0.244-1.422,0.334-2.178,0.268c-0.719-0.063-1.408-0.269-2.064-0.619
		c-0.645-0.336-1.189-0.778-1.639-1.327c-0.461-0.535-0.803-1.15-1.021-1.843c-0.23-0.707-0.314-1.42-0.252-2.139
		c0.064-0.744,0.271-1.445,0.621-2.102c0.336-0.631,0.783-1.171,1.346-1.618c0.547-0.46,1.156-0.802,1.824-1.023
		c0.666-0.221,1.379-0.299,2.137-0.233c0.756,0.066,1.445,0.266,2.064,0.6c0.314,0.168,0.609,0.362,0.883,0.583
		c0.273,0.221,0.525,0.469,0.756,0.743c0.461,0.549,0.803,1.157,1.023,1.825C273.093,49.855,273.177,50.581,273.112,51.325z
		 M264.255,48.13c-0.559,0.702-0.873,1.482-0.949,2.339c-0.053,0.619,0.018,1.184,0.215,1.698c0.17,0.523,0.445,1.011,0.826,1.464
		c0.379,0.453,0.812,0.808,1.299,1.067c0.484,0.271,1.029,0.433,1.637,0.486c0.578,0.051,1.145-0.014,1.693-0.195
		c0.523-0.17,1.012-0.446,1.467-0.827c0.41-0.345,0.766-0.778,1.064-1.299c0.271-0.484,0.434-1.03,0.486-1.636
		c0.051-0.568-0.016-1.127-0.195-1.676c-0.193-0.551-0.457-1.038-0.789-1.461c-0.346-0.412-0.777-0.767-1.299-1.067
		c-0.496-0.285-1.055-0.455-1.672-0.509c-0.744-0.064-1.441,0.046-2.088,0.333C265.263,47.131,264.698,47.559,264.255,48.13z"/>
	<path d="M280.333,48.016l-3.598-0.486l-0.238,1.77l2.73,0.368l-0.152,1.13l-2.73-0.369l-0.9,6.666l-1.148-0.155l1.447-10.714
		l4.744,0.641L280.333,48.016z"/>
	<path d="M281.665,58.021l1.637-9.512l-1.797-0.31l0.197-1.142l4.717,0.812l-0.195,1.143l-1.777-0.306l-1.639,9.512L281.665,58.021z
		"/>
	<path d="M287.813,59.165l-0.148-11.142l1.148,0.271l0.096,7.381l3.379-6.562l1.092,0.257l0.096,7.382l3.381-6.562l1.146,0.27
		l-5.105,9.904l-0.518-0.122l-0.098-8.612l-3.951,7.658L287.813,59.165z"/>
	<path d="M301.878,51.747l-0.732,11.118l-1.123-0.359l0.109-1.521l-2.697-0.865l-0.797,1.301l-1.121-0.36l5.855-9.476
		L301.878,51.747z M300.19,59.805l0.314-4.648l-2.449,3.964L300.19,59.805z"/>
	<path d="M307.563,53.768c0.418,0.202,0.793,0.48,1.123,0.836c0.158,0.175,0.291,0.36,0.4,0.557
		c0.109,0.196,0.209,0.402,0.297,0.616c0.15,0.433,0.23,0.884,0.242,1.355c-0.012,0.489-0.102,0.938-0.271,1.348
		c-0.127,0.305-0.307,0.607-0.541,0.907c-0.246,0.296-0.51,0.536-0.791,0.721c-0.146,0.09-0.299,0.174-0.455,0.254
		c-0.156,0.079-0.32,0.145-0.492,0.197c-0.334,0.109-0.68,0.165-1.037,0.167c0.004,0.057,0.016,0.113,0.033,0.168
		c0.018,0.056,0.033,0.12,0.045,0.192c0.01,0.074,0.023,0.15,0.037,0.232s0.027,0.172,0.041,0.274l0.08,1
		c0.051,0.638,0.324,1.156,0.816,1.552l-0.443,1.071c-0.174-0.141-0.32-0.27-0.441-0.389c-0.121-0.119-0.229-0.231-0.32-0.338
		c-0.195-0.19-0.338-0.373-0.428-0.547c-0.102-0.151-0.166-0.328-0.189-0.531c-0.014-0.102-0.025-0.206-0.035-0.313
		c-0.01-0.106-0.014-0.228-0.012-0.365v-0.493c-0.004-0.057-0.01-0.12-0.014-0.191c-0.006-0.07-0.014-0.156-0.027-0.258
		c-0.029-0.19-0.078-0.417-0.146-0.678l-0.133-0.322l-0.07-0.173c-0.02-0.021-0.031-0.041-0.039-0.057
		c-0.008-0.017-0.02-0.036-0.037-0.057l0.033,0.015l-1.344,3.248l-1.09-0.451l4.137-9.989L307.563,53.768z M305.192,59.49
		c0.289,0.092,0.584,0.132,0.889,0.121c0.303-0.011,0.604-0.079,0.9-0.203c0.295-0.124,0.557-0.296,0.785-0.518
		c0.217-0.197,0.402-0.478,0.551-0.841c0.127-0.304,0.195-0.618,0.207-0.942c-0.01-0.334-0.068-0.639-0.172-0.914
		c-0.109-0.292-0.264-0.562-0.461-0.808c-0.102-0.111-0.219-0.218-0.348-0.319c-0.127-0.101-0.264-0.188-0.41-0.263L305.192,59.49z"
		/>
	<path d="M313.325,56.356l4.172,2.35l-0.568,1.009l-3.162-1.781l-0.877,1.556l2.418,1.361l-0.561,0.993l-2.416-1.361l-2.742,4.867
		l3.162,1.78l-0.559,0.994l-4.172-2.35L313.325,56.356z"/>
</g>
<polygon points="244.706,59.538 246.293,64.422 251.428,64.422 247.273,67.441 248.86,72.325 244.706,69.307 240.551,72.325 
	242.138,67.441 237.983,64.422 243.118,64.422 "/>
</svg>
